<svg id="Notification_button" xmlns="http://www.w3.org/2000/svg" width="19.524" height="21.273" viewBox="0 0 19.524 21.273">
  <path id="Vector_21" d="M184.85,1003.508a3.329,3.329,0,0,0,3.26-2.658H181.59A3.33,3.33,0,0,0,184.85,1003.508Z" transform="translate(-175.976 -982.235)" fill="#fff"/>
  <path id="Vector_22" d="M190.1,989.947h-.01a6.216,6.216,0,0,1-6.212-6.206,6.138,6.138,0,0,1,.594-2.629c-.2-.019-.393-.031-.594-.031a6.209,6.209,0,0,0-6.212,6.207v2.472a5.94,5.94,0,0,1-2.12,4.55,1.552,1.552,0,0,0-.488,1.592,1.628,1.628,0,0,0,1.6,1.138h14.443a1.626,1.626,0,0,0,1.622-1.23,1.553,1.553,0,0,0-.529-1.517A5.9,5.9,0,0,1,190.1,989.947Z" transform="translate(-175 -979.308)" fill="#fff"/>
  <path id="Vector_23" d="M196.375,983.433A4.437,4.437,0,1,1,191.938,979,4.434,4.434,0,0,1,196.375,983.433Z" transform="translate(-176.851 -979)" fill="#e4126b"/>
</svg>
